<svg width="50" height="50" viewBox="0 0 50 50" fill="none" xmlns="http://www.w3.org/2000/svg">
<path d="M32.8125 4.73596L31.7875 5.8594C29.4922 8.38596 27.6 9.51565 26.025 10.2547C24.45 10.9922 23.1266 11.2125 21.8266 12.2078C20.4406 13.2703 18.4266 15.3078 17.5781 18.9453C15.7594 19.3422 14.4281 20.0391 13.3781 20.9469C12.3406 21.8438 11.5594 22.8641 10.5969 23.975C10.5891 23.9875 10.6016 24.011 10.5969 24.0235C9.21563 25.611 8.00781 27.3203 5.66406 28.2235L4.6875 28.6141V45.3125H34.4734C36.1812 45.2203 37.3656 44.0375 38.0859 42.8703C38.8047 41.7047 39.2031 40.4422 39.4047 39.4047C39.9234 36.761 40.8688 29.15 40.8688 29.15L40.9188 29.0047V28.8578C40.8687 27.8016 40.4344 26.9047 39.8922 26.0735L41.65 20.85L44.4344 16.65L45.2156 15.5266L44.1891 14.6L33.9359 5.71252L32.8125 4.73596ZM32.9109 9.03284L41.0641 16.1141L38.9156 19.286L38.7703 19.4344L38.7203 19.6781L37.3047 23.8766C36.5656 23.5719 35.8047 23.3578 34.9609 23.3891H34.8625L25 23.4375H23.4375V29.4922C23.2188 31.1953 22.2719 31.8547 21.0938 32.325C20.7031 32.4828 20.6547 32.3969 20.3125 32.4703V23.3906C20.0562 17.5985 22.1187 15.9313 23.7312 14.6985C24.1766 14.3563 25.4813 13.961 27.3438 13.0875C28.9 12.3547 30.8344 11.0406 32.9109 9.03284ZM17.2859 22.461C17.2797 22.8156 17.1687 23.0656 17.1875 23.4375V35.9375H18.75C18.75 35.9375 20.4219 35.9188 22.2172 35.2047C24.0109 34.4907 26.1781 32.8188 26.5625 29.8828V26.5625L34.9609 26.5141H35.0094C35.6953 26.4765 36.3681 26.7123 36.8806 27.1697C37.3931 27.6271 37.7034 28.269 37.7438 28.9547C37.7375 28.9797 37.6656 29.5594 37.6469 29.6875H31.25V32.8125H37.2562C37.0906 34.0203 36.9391 34.7781 36.7672 35.9375H31.25V39.0625H36.2797C36.095 39.8185 35.7985 40.5426 35.4 41.211C34.9734 41.9063 34.6062 42.1688 34.2781 42.1875H7.8125V30.5172C10.3453 29.1735 11.9203 27.2406 12.9391 26.075C13.9953 24.8656 14.7203 23.95 15.4297 23.3406C15.8938 22.9438 16.6203 22.7172 17.2859 22.461Z" fill="url(#paint0_linear_134_47)"/>
<defs>
<linearGradient id="paint0_linear_134_47" x1="24.9516" y1="4.73596" x2="24.9516" y2="45.3125" gradientUnits="userSpaceOnUse">
<stop stop-color="white"/>
<stop offset="1" stop-color="#C6BFBE"/>
</linearGradient>
</defs>
</svg>
