<svg width="33" height="33" viewBox="0 0 33 33" fill="none" xmlns="http://www.w3.org/2000/svg">
<path fill-rule="evenodd" clip-rule="evenodd" d="M26.8887 0.119551C27.1713 0.236638 27.413 0.434932 27.5829 0.689351C27.7529 0.94377 27.8436 1.24288 27.8436 1.54886V5.15823H31.453C31.7587 5.1585 32.0575 5.24937 32.3116 5.41936C32.5658 5.58935 32.7638 5.83084 32.8808 6.11333C32.9978 6.39582 33.0284 6.70663 32.9688 7.00651C32.9093 7.3064 32.7621 7.5819 32.5461 7.79823L26.3586 13.9857C26.0688 14.2759 25.6756 14.4391 25.2655 14.4395H24.4879C24.8975 16.026 24.8253 17.6986 24.2807 19.244C23.736 20.7894 22.7435 22.1375 21.4296 23.1167C20.1158 24.0958 18.5401 24.6615 16.9035 24.7417C15.2669 24.8219 13.6435 24.4129 12.2403 23.5669C10.837 22.7209 9.71744 21.4762 9.0243 19.9915C8.33116 18.5068 8.09584 16.8493 8.34834 15.2303C8.60084 13.6113 9.32973 12.1042 10.4421 10.901C11.5544 9.69788 12.9999 8.85323 14.5941 8.47473C14.9934 8.37983 15.4141 8.44743 15.7635 8.66269C16.113 8.87794 16.3627 9.2232 16.4576 9.62251C16.5525 10.0218 16.4849 10.4425 16.2696 10.792C16.0544 11.1414 15.7091 11.3911 15.3098 11.486C14.2791 11.73 13.3485 12.2856 12.6447 13.0771C11.9408 13.8687 11.4978 14.8578 11.3759 15.91C11.254 16.9621 11.459 18.0263 11.9632 18.9579C12.4674 19.8894 13.2462 20.643 14.1938 21.1163C15.1414 21.5896 16.2118 21.7596 17.2594 21.6032C18.307 21.4467 19.281 20.9715 20.049 20.242C20.817 19.5125 21.3417 18.5642 21.5517 17.526C21.7617 16.4878 21.647 15.4101 21.223 14.4395H20.7486L17.593 17.5951C17.4514 17.7471 17.2806 17.869 17.0908 17.9535C16.9011 18.0381 16.6963 18.0835 16.4886 18.0872C16.2809 18.0909 16.0745 18.0527 15.8819 17.9749C15.6893 17.8971 15.5143 17.7813 15.3675 17.6344C15.2206 17.4875 15.1048 17.3125 15.027 17.1199C14.9492 16.9273 14.911 16.721 14.9146 16.5133C14.9183 16.3056 14.9638 16.1007 15.0483 15.911C15.1328 15.7212 15.2547 15.5505 15.4067 15.4089L18.5623 12.2532V7.73636C18.5627 7.32624 18.7259 6.93305 19.0161 6.64323L25.2036 0.455738C25.4198 0.239399 25.6952 0.0919972 25.9952 0.0321592C26.2951 -0.0276789 26.606 0.00273267 26.8887 0.119551ZM21.6561 8.37779V11.3457H24.6261L27.7198 8.25198H24.7498V5.28198L21.6561 8.37779ZM9.94111 4.80761C12.3568 3.45257 15.133 2.87904 17.8879 3.16586C18.09 3.18685 18.2942 3.16784 18.4889 3.10991C18.6836 3.05198 18.865 2.95627 19.0227 2.82823C19.1804 2.7002 19.3114 2.54236 19.4081 2.36372C19.5048 2.18508 19.5654 1.98914 19.5864 1.78708C19.6074 1.58503 19.5884 1.38081 19.5304 1.18611C19.4725 0.9914 19.3768 0.81001 19.2488 0.652292C19.1207 0.494575 18.9629 0.36362 18.7842 0.266904C18.6056 0.170187 18.4097 0.109604 18.2076 0.0886133C14.8166 -0.26422 11.3995 0.442037 8.42624 2.11028C5.45296 3.77853 3.06944 6.32685 1.6034 9.40487C0.137366 12.4829 -0.339205 15.9395 0.239215 19.2994C0.817635 22.6593 2.42264 25.7575 4.83357 28.1681C7.24449 30.5787 10.3429 32.1832 13.7029 32.7612C17.0629 33.3391 20.5194 32.8621 23.5972 31.3956C26.675 29.9291 29.223 27.5453 30.8909 24.5717C32.5587 21.5982 33.2645 18.1811 32.9111 14.7901C32.8902 14.588 32.8296 14.3921 32.7329 14.2135C32.6361 14.0348 32.5052 13.877 32.3475 13.7489C32.1898 13.6209 32.0084 13.5252 31.8137 13.4673C31.6189 13.4093 31.4147 13.3903 31.2127 13.4113C31.0106 13.4323 30.8147 13.4929 30.636 13.5896C30.4574 13.6863 30.2996 13.8173 30.1715 13.975C30.0435 14.1327 29.9478 14.3141 29.8899 14.5088C29.8319 14.7035 29.8129 14.9077 29.8339 15.1098C30.0851 17.5162 29.6805 19.9457 28.6628 22.1407C27.6451 24.3357 26.0524 26.2145 24.0535 27.5776C22.0546 28.9408 19.7241 29.7376 17.3091 29.8836C14.894 30.0296 12.4845 29.5193 10.3359 28.4069C8.18739 27.2944 6.37996 25.6212 5.1053 23.5648C3.83063 21.5083 3.13624 19.1452 3.09577 16.7261C3.05529 14.307 3.67023 11.922 4.87539 9.82405C6.08055 7.7261 7.83099 5.9934 9.94111 4.80967V4.80761Z" fill="url(#paint0_linear_299_184)"/>
<defs>
<linearGradient id="paint0_linear_299_184" x1="16.5" y1="0" x2="16.5" y2="33" gradientUnits="userSpaceOnUse">
<stop stop-color="white"/>
<stop offset="1" stop-color="#C6BFBE"/>
</linearGradient>
</defs>
</svg>
