<svg width="50" height="50" viewBox="0 0 50 50" fill="none" xmlns="http://www.w3.org/2000/svg">
<g clip-path="url(#clip0_134_49)">
<path d="M50 43.75L40.625 50V46.875H25.7812L32.0312 40.625H40.625V37.5L50 43.75ZM0 6.25L9.375 0V3.125H24.2188L17.9688 9.375H9.375V12.5L0 6.25ZM30.4375 0L0 30.4375L19.5625 50L50 19.5625L30.4375 0ZM4.34375 30.4375L30.4375 4.34375L45.6562 19.5625L19.5625 45.6562L4.34375 30.4375Z" fill="url(#paint0_linear_134_49)"/>
<path d="M13.0313 30.4375L10.8438 32.625L17.375 39.1562L19.5625 36.9688L21.875 39.125L30.4375 30.4375C28.9882 31.8446 27.0435 32.625 25.0235 32.6101C23.0036 32.5952 21.0706 31.7861 19.6422 30.3578C18.2139 28.9294 17.4048 26.9964 17.3899 24.9765C17.375 22.9565 18.1554 21.0118 19.5625 19.5625L10.875 28.125L13.0313 30.4375Z" fill="url(#paint1_linear_134_49)"/>
<path d="M39.125 17.4063L32.5938 10.875L30.4062 13.0625L28.125 10.875L19.5625 19.5625C21.0118 18.1554 22.9565 17.375 24.9765 17.3899C26.9964 17.4048 28.9294 18.2139 30.3578 19.6422C31.7861 21.0706 32.5952 23.0036 32.6101 25.0235C32.625 27.0435 31.8446 28.9882 30.4375 30.4375L39.125 21.875L36.9375 19.6875L39.125 17.4063Z" fill="url(#paint2_linear_134_49)"/>
</g>
<defs>
<linearGradient id="paint0_linear_134_49" x1="25" y1="0" x2="25" y2="50" gradientUnits="userSpaceOnUse">
<stop stop-color="white"/>
<stop offset="1" stop-color="#C6BFBE"/>
</linearGradient>
<linearGradient id="paint1_linear_134_49" x1="20.6406" y1="19.5625" x2="20.6406" y2="39.1562" gradientUnits="userSpaceOnUse">
<stop stop-color="white"/>
<stop offset="1" stop-color="#C6BFBE"/>
</linearGradient>
<linearGradient id="paint2_linear_134_49" x1="29.3438" y1="10.875" x2="29.3438" y2="30.4375" gradientUnits="userSpaceOnUse">
<stop stop-color="white"/>
<stop offset="1" stop-color="#C6BFBE"/>
</linearGradient>
<clipPath id="clip0_134_49">
<rect width="50" height="50" fill="white"/>
</clipPath>
</defs>
</svg>
