<svg width="33" height="33" viewBox="0 0 33 33" fill="none" xmlns="http://www.w3.org/2000/svg">
<path d="M3.09375 5.15625V16.9187L3.38353 17.2415L9.28125 23.1382V28.875H15.4688V22.6875C15.4729 22.6308 15.6193 19.4339 12.9546 17.7241C12.9473 17.72 12.9628 17.6962 12.9546 17.6932C12.9473 17.688 12.9308 17.6962 12.9236 17.6932C11.7016 16.895 10.4414 16.2432 9.57206 15.5657C8.69344 14.8851 8.25 14.321 8.25 13.4062H6.1875C6.1875 15.0738 7.16203 16.3391 8.28197 17.2095C9.40191 18.0799 10.7033 18.7203 11.7944 19.4329H11.8274C13.4784 20.4683 13.4062 22.6555 13.4062 22.6555V26.8125H11.3438V22.2688L11.054 21.946L5.15625 16.0493V5.15625H3.09375ZM27.8438 5.15625V16.0493L21.946 21.946L21.6562 22.2688V26.8125H19.5938V22.6225C19.5938 22.6225 19.5216 20.4672 21.1726 19.4329H21.2056C22.2936 18.7203 23.5981 18.0778 24.718 17.2085C25.838 16.3402 26.8125 15.0738 26.8125 13.4062H24.75C24.75 14.321 24.3066 14.8851 23.429 15.5657C22.5586 16.2422 21.2984 16.8939 20.0774 17.6921C20.0692 17.6962 20.0527 17.688 20.0444 17.6921V17.7251C17.4023 19.4164 17.5282 22.5792 17.5312 22.6875V28.875H23.7188V23.1382L29.6165 17.2415L29.9062 16.9187V5.15625H27.8438Z" fill="url(#paint0_linear_299_193)"/>
<path d="M16.5 17.0311L15.1542 15.806C10.3744 11.4716 7.21875 8.60372 7.21875 5.10469C7.21875 2.23678 9.46481 0 12.3234 0C13.9384 0 15.4883 0.751781 16.5 1.9305C17.5117 0.751781 19.0616 0 20.6766 0C23.5352 0 25.7812 2.23678 25.7812 5.10469C25.7812 8.60372 22.6256 11.4716 17.8458 15.806L16.5 17.0311Z" fill="url(#paint1_linear_299_193)"/>
<defs>
<linearGradient id="paint0_linear_299_193" x1="16.5" y1="5.15625" x2="16.5" y2="28.875" gradientUnits="userSpaceOnUse">
<stop stop-color="white"/>
<stop offset="1" stop-color="#C6BFBE"/>
</linearGradient>
<linearGradient id="paint1_linear_299_193" x1="16.5" y1="0" x2="16.5" y2="17.0311" gradientUnits="userSpaceOnUse">
<stop stop-color="white"/>
<stop offset="1" stop-color="#C6BFBE"/>
</linearGradient>
</defs>
</svg>
