<svg width="33" height="25" viewBox="0 0 33 25" fill="none" xmlns="http://www.w3.org/2000/svg">
<path d="M16.5 5.28125C15.8928 5.29193 15.29 5.40045 14.7102 5.60352C14.9784 6.13417 15.1212 6.73332 15.125 7.34375C15.125 7.81774 15.042 8.28709 14.8807 8.725C14.7195 9.16291 14.4832 9.5608 14.1853 9.89596C13.8873 10.2311 13.5337 10.497 13.1444 10.6784C12.7552 10.8598 12.338 10.9531 11.9166 10.9531C11.374 10.9489 10.8415 10.7882 10.3698 10.4865C9.99761 11.9385 10.041 13.4854 10.4937 14.9081C10.9465 16.3308 11.7857 17.5572 12.8924 18.4136C13.9991 19.27 15.3173 19.7129 16.6603 19.6796C18.0032 19.6463 19.3027 19.1385 20.3749 18.2281C21.447 17.3178 22.2374 16.051 22.634 14.6072C23.0306 13.1634 23.0134 11.6159 22.5847 10.1837C22.1561 8.75158 21.3378 7.50745 20.2457 6.62758C19.1537 5.74771 17.8432 5.27669 16.5 5.28125ZM32.8006 11.559C29.6937 4.7392 23.5428 0.125 16.5 0.125C9.4571 0.125 3.30455 4.74242 0.199344 11.5596C0.0682843 11.8513 0 12.1735 0 12.5003C0 12.8271 0.0682843 13.1494 0.199344 13.441C3.30627 20.2608 9.4571 24.875 16.5 24.875C23.5428 24.875 29.6954 20.2576 32.8006 13.4404C32.9317 13.1487 32.9999 12.8265 32.9999 12.4997C32.9999 12.1729 32.9317 11.8506 32.8006 11.559ZM16.5 21.7813C10.8481 21.7813 5.66669 18.2363 2.86856 12.5C5.66669 6.76367 10.8476 3.21875 16.5 3.21875C22.1524 3.21875 27.3333 6.76367 30.1314 12.5C27.3338 18.2363 22.1524 21.7813 16.5 21.7813Z" fill="url(#paint0_linear_299_189)"/>
<defs>
<linearGradient id="paint0_linear_299_189" x1="16.5" y1="0.125" x2="16.5" y2="24.875" gradientUnits="userSpaceOnUse">
<stop stop-color="white"/>
<stop offset="1" stop-color="#C6BFBE"/>
</linearGradient>
</defs>
</svg>
